<svg width="32" height="32" viewBox="0 0 32 32" fill="none" xmlns="http://www.w3.org/2000/svg">
<rect width="32" height="32" rx="16" fill="#3C6497"/>
<path d="M22.9608 21.052C22.5819 20.1543 22.0319 19.3389 21.3417 18.6513C20.6535 17.9616 19.8382 17.4118 18.941 17.0321C18.9329 17.0281 18.9249 17.0261 18.9169 17.022C20.1684 16.118 20.9821 14.6455 20.9821 12.9841C20.9821 10.2319 18.7521 8.00195 15.9999 8.00195C13.2477 8.00195 11.0178 10.2319 11.0178 12.9841C11.0178 14.6455 11.8314 16.118 13.0829 17.0241C13.0749 17.0281 13.0669 17.0301 13.0588 17.0341C12.1588 17.4138 11.3513 17.9582 10.6582 18.6533C9.96852 19.3415 9.41867 20.1567 9.03897 21.054C8.66596 21.9324 8.46479 22.8741 8.44634 23.8283C8.4458 23.8497 8.44956 23.8711 8.4574 23.891C8.46524 23.911 8.47699 23.9292 8.49197 23.9445C8.50694 23.9599 8.52484 23.9721 8.54461 23.9804C8.56437 23.9887 8.58561 23.993 8.60705 23.993H9.81241C9.9008 23.993 9.97112 23.9227 9.97312 23.8363C10.0133 22.2854 10.6361 20.833 11.737 19.7321C12.876 18.593 14.3888 17.9662 15.9999 17.9662C17.6111 17.9662 19.1238 18.593 20.2629 19.7321C21.3638 20.833 21.9865 22.2854 22.0267 23.8363C22.0287 23.9247 22.099 23.993 22.1874 23.993H23.3928C23.4142 23.993 23.4354 23.9887 23.4552 23.9804C23.475 23.9721 23.4929 23.9599 23.5079 23.9445C23.5228 23.9292 23.5346 23.911 23.5424 23.891C23.5503 23.8711 23.554 23.8497 23.5535 23.8283C23.5334 22.868 23.3345 21.9339 22.9608 21.052ZM15.9999 16.4395C15.0778 16.4395 14.21 16.0799 13.5571 15.427C12.9042 14.7741 12.5446 13.9062 12.5446 12.9841C12.5446 12.062 12.9042 11.1941 13.5571 10.5412C14.21 9.88834 15.0778 9.52874 15.9999 9.52874C16.922 9.52874 17.7899 9.88834 18.4428 10.5412C19.0957 11.1941 19.4553 12.062 19.4553 12.9841C19.4553 13.9062 19.0957 14.7741 18.4428 15.427C17.7899 16.0799 16.922 16.4395 15.9999 16.4395Z" fill="white"/>
</svg>
