<svg width="157" height="120" viewBox="0 0 157 120" fill="none" xmlns="http://www.w3.org/2000/svg">
<rect x="20" width="120" height="120" rx="60" fill="#3C6497"/>
<path d="M68.8623 52.1146C68.1348 50.3183 67.0791 48.6866 65.7541 47.3106C64.433 45.9305 62.8681 44.8302 61.1457 44.0704C61.1303 44.0623 61.1149 44.0583 61.0994 44.0503C63.5019 42.2412 65.0638 39.2945 65.0638 35.9698C65.0638 30.4623 60.7832 26 55.5 26C50.2168 26 45.9362 30.4623 45.9362 35.9698C45.9362 39.2945 47.4981 42.2412 49.9006 44.0543C49.8851 44.0623 49.8697 44.0663 49.8543 44.0744C48.1266 44.8342 46.5764 45.9236 45.2459 47.3146C43.9221 48.6917 42.8666 50.3231 42.1377 52.1186C41.4217 53.8764 41.0355 55.761 41.0001 57.6703C40.9991 57.7133 41.0063 57.7559 41.0213 57.7959C41.0364 57.8358 41.0589 57.8723 41.0877 57.903C41.1164 57.9337 41.1508 57.9581 41.1887 57.9748C41.2267 57.9914 41.2674 58 41.3086 58H43.6224C43.7921 58 43.9271 57.8593 43.9309 57.6864C44.0081 54.5829 45.2035 51.6764 47.3168 49.4734C49.5034 47.194 52.4072 45.9397 55.5 45.9397C58.5928 45.9397 61.4966 47.194 63.6832 49.4734C65.7965 51.6764 66.9919 54.5829 67.0691 57.6864C67.0729 57.8633 67.2079 58 67.3776 58H69.6914C69.7326 58 69.7733 57.9914 69.8113 57.9748C69.8492 57.9581 69.8836 57.9337 69.9123 57.903C69.9411 57.8723 69.9636 57.8358 69.9787 57.7959C69.9937 57.7559 70.0009 57.7133 69.9999 57.6703C69.9613 55.7487 69.5796 53.8794 68.8623 52.1146ZM55.5 42.8844C53.7299 42.8844 52.064 42.1648 50.8107 40.8583C49.5574 39.5518 48.8671 37.8151 48.8671 35.9698C48.8671 34.1246 49.5574 32.3879 50.8107 31.0814C52.064 29.7749 53.7299 29.0553 55.5 29.0553C57.2701 29.0553 58.936 29.7749 60.1893 31.0814C61.4426 32.3879 62.1329 34.1246 62.1329 35.9698C62.1329 37.8151 61.4426 39.5518 60.1893 40.8583C58.936 42.1648 57.2701 42.8844 55.5 42.8844Z" fill="white"/>
<path d="M40.9998 105.5L119.5 15.5" stroke="white" stroke-width="2"/>
<path d="M112.889 96V71.1111C112.889 69.3929 111.496 68 109.778 68H94.2222C92.504 68 91.1111 69.3929 91.1111 71.1111V96M112.889 96L116 96M112.889 96H105.111M91.1111 96L88 96M91.1111 96H98.8889M97.3333 74.2222H98.8889M97.3333 80.4444H98.8889M105.111 74.2222H106.667M105.111 80.4444H106.667M98.8889 96V88.2222C98.8889 87.3631 99.5853 86.6666 100.444 86.6666H103.556C104.415 86.6666 105.111 87.3631 105.111 88.2222V96M98.8889 96H105.111" stroke="white" stroke-width="3" stroke-linecap="round" stroke-linejoin="round"/>
</svg>
