<svg width="34" height="34" viewBox="0 0 34 34" fill="none" xmlns="http://www.w3.org/2000/svg">
<path d="M11.7907 17L15.2636 20.4728L22.2093 13.5272M9.76734 4.31898C11.0133 4.21955 12.1961 3.72961 13.1474 2.9189C15.3674 1.02703 18.6326 1.02703 20.8526 2.9189C21.8039 3.72961 22.9867 4.21955 24.2327 4.31898C27.1402 4.551 29.449 6.85981 29.681 9.76734C29.7805 11.0133 30.2704 12.1961 31.0811 13.1474C32.973 15.3674 32.973 18.6326 31.0811 20.8526C30.2704 21.8039 29.7805 22.9867 29.681 24.2327C29.449 27.1402 27.1402 29.449 24.2327 29.681C22.9867 29.7805 21.8039 30.2704 20.8526 31.0811C18.6326 32.973 15.3674 32.973 13.1474 31.0811C12.1961 30.2704 11.0133 29.7805 9.76734 29.681C6.85981 29.449 4.551 27.1402 4.31898 24.2327C4.21955 22.9867 3.72961 21.8039 2.9189 20.8526C1.02703 18.6326 1.02703 15.3674 2.9189 13.1474C3.72961 12.1961 4.21955 11.0133 4.31898 9.76734C4.551 6.85981 6.85981 4.551 9.76734 4.31898Z" stroke="#20A000" stroke-width="3" stroke-linecap="round" stroke-linejoin="round"/>
</svg>
