<svg width="30" height="30" viewBox="0 0 30 30" fill="none" xmlns="http://www.w3.org/2000/svg">
<path fill-rule="evenodd" clip-rule="evenodd" d="M22.2262 7.77347C22.3135 7.86056 22.3828 7.96401 22.43 8.07791C22.4773 8.19181 22.5016 8.31391 22.5016 8.43722C22.5016 8.56054 22.4773 8.68264 22.43 8.79654C22.3828 8.91043 22.3135 9.01389 22.2262 9.10097L9.10121 22.226C8.92518 22.402 8.68642 22.5009 8.43746 22.5009C8.18851 22.5009 7.94975 22.402 7.77371 22.226C7.59768 22.0499 7.49878 21.8112 7.49878 21.5622C7.49878 21.3133 7.59768 21.0745 7.77371 20.8985L20.8987 7.77347C20.9858 7.68617 21.0893 7.6169 21.2031 7.56964C21.317 7.52237 21.4391 7.49805 21.5625 7.49805C21.6858 7.49805 21.8079 7.52237 21.9218 7.56964C22.0357 7.6169 22.1391 7.68617 22.2262 7.77347Z" fill="#3D3D3D"/>
<path fill-rule="evenodd" clip-rule="evenodd" d="M7.77372 7.77347C7.68641 7.86056 7.61714 7.96401 7.56988 8.07791C7.52262 8.19181 7.49829 8.31391 7.49829 8.43722C7.49829 8.56054 7.52262 8.68264 7.56988 8.79654C7.61714 8.91043 7.68641 9.01389 7.77372 9.10097L20.8987 22.226C21.0748 22.402 21.3135 22.5009 21.5625 22.5009C21.8114 22.5009 22.0502 22.402 22.2262 22.226C22.4023 22.0499 22.5011 21.8112 22.5011 21.5622C22.5011 21.3133 22.4023 21.0745 22.2262 20.8985L9.10122 7.77347C9.01413 7.68617 8.91068 7.6169 8.79678 7.56964C8.68288 7.52237 8.56078 7.49805 8.43747 7.49805C8.31415 7.49805 8.19205 7.52237 8.07815 7.56964C7.96426 7.6169 7.8608 7.68617 7.77372 7.77347Z" fill="#3D3D3D"/>
</svg>
