<svg width="14" height="10" viewBox="0 0 14 10" fill="none" xmlns="http://www.w3.org/2000/svg">
<path d="M12.2812 0.0361328H1.71876C1.04669 0.0361328 0.5 0.582826 0.5 1.25489V8.56738C0.5 9.23945 1.04669 9.78614 1.71876 9.78614H12.2812C12.9533 9.78614 13.5 9.23945 13.5 8.56738V1.25489C13.5 0.582826 12.9533 0.0361328 12.2812 0.0361328V0.0361328ZM12.2812 0.848629C12.3364 0.848629 12.3889 0.860081 12.4369 0.88008L7 5.59232L1.56302 0.88008C1.61103 0.860108 1.66353 0.848629 1.71873 0.848629H12.2812ZM12.2812 8.97362H1.71876C1.49461 8.97362 1.3125 8.79153 1.3125 8.56736V1.73849L6.73379 6.43695C6.81036 6.50319 6.90518 6.53613 7 6.53613C7.09481 6.53613 7.18963 6.50321 7.26621 6.43695L12.6875 1.73849V8.56738C12.6875 8.79153 12.5054 8.97362 12.2812 8.97362V8.97362Z" fill="#5C5C5C"/>
</svg>
