<svg width="16" height="8" viewBox="0 0 16 8" fill="none" xmlns="http://www.w3.org/2000/svg">
<path d="M8.43366 2.66667C7.88366 1.11333 6.40699 0 4.66699 0C2.45699 0 0.666992 1.79 0.666992 4C0.666992 6.21 2.45699 8 4.66699 8C6.40699 8 7.88366 6.88667 8.43366 5.33333H11.3337V8H14.0003V5.33333H15.3337V2.66667H8.43366ZM4.66699 5.33333C3.93033 5.33333 3.33366 4.73667 3.33366 4C3.33366 3.26333 3.93033 2.66667 4.66699 2.66667C5.40366 2.66667 6.00033 3.26333 6.00033 4C6.00033 4.73667 5.40366 5.33333 4.66699 5.33333Z" fill="#5C5C5C"/>
</svg>
